<?xml version="1.0" encoding="UTF-8" standalone="no"?>
<!-- Created with Inkscape (http://www.inkscape.org/) -->

<svg
   version="1.1"
   id="svg2"
   width="816"
   height="1056"
   viewBox="0 0 816 1056"
   sodipodi:docname="logo.ai"
   xmlns:inkscape="http://www.inkscape.org/namespaces/inkscape"
   xmlns:sodipodi="http://sodipodi.sourceforge.net/DTD/sodipodi-0.dtd"
   xmlns="http://www.w3.org/2000/svg"
   xmlns:svg="http://www.w3.org/2000/svg">
  <defs
     id="defs6">
    <clipPath
       clipPathUnits="userSpaceOnUse"
       id="clipPath16">
      <path
         d="M 0,792 H 612 V 0 H 0 Z"
         id="path14" />
    </clipPath>
  </defs>
  <sodipodi:namedview
     id="namedview4"
     pagecolor="#ffffff"
     bordercolor="#000000"
     borderopacity="0.25"
     inkscape:showpageshadow="2"
     inkscape:pageopacity="0.0"
     inkscape:pagecheckerboard="0"
     inkscape:deskcolor="#d1d1d1" />
  <g
     id="g8"
     inkscape:groupmode="layer"
     inkscape:label="logo"
     transform="matrix(1.3333333,0,0,-1.3333333,0,1056)">
    <g
       id="g10">
      <g
         id="g12"
         clip-path="url(#clipPath16)">
        <g
           id="g18"
           transform="translate(289.6328,523.3976)">
          <path
             d="m 0,0 c -0.427,-2.851 0.562,-5.378 1.777,-7.752 0.845,-1.652 2.156,-2.973 4.158,-3.524 4.843,-1.334 9.006,0.059 12.458,3.329 3.304,3.129 6.139,6.657 7.265,11.319 0.94,3.89 1.731,7.678 0.219,11.607 -2.358,6.123 -8.537,7.822 -13.27,5.048 C 5.024,15.584 0.682,8.863 0,0 m -15.282,-64.673 c 0.813,-0.663 1.749,-1.131 2.717,-1.484 4.978,-1.812 9.925,-3.736 15.17,-4.674 10.969,-1.962 21.153,-0.095 30.767,5.71 11.78,7.114 21.959,16.074 31.116,26.231 3.928,4.356 7.178,9.271 9.657,14.643 0.8,1.736 1.644,3.451 2.504,5.158 0.261,0.519 0.557,1.163 1.32,0.955 0.733,-0.201 0.746,-0.867 0.722,-1.476 -0.179,-4.546 -0.519,-9.07 -1.19,-13.58 -0.921,-6.187 -2.219,-12.28 -4.872,-17.951 -3.334,-7.13 -7.241,-13.961 -11.947,-20.291 -6.264,-8.427 -12.48,-16.892 -18.923,-25.18 -5.122,-6.589 -10.803,-12.722 -16.354,-18.954 -2.051,-2.304 -4.443,-4.249 -6.855,-6.161 -3.501,-2.775 -6.667,-5.954 -10.351,-8.513 -1.247,-0.866 -2.526,-1.667 -3.811,-2.465 -0.514,-0.319 -1.091,-0.287 -1.627,-0.221 -0.844,0.104 -1.181,0.919 -0.661,1.598 4.789,6.262 6.646,13.719 8.36,21.166 0.831,3.607 0.679,7.399 0.102,11.093 -0.484,3.093 -2.149,5.5 -4.592,7.459 -4.88,3.914 -10.565,5.925 -16.535,7.417 -3.302,0.825 -6.639,1.225 -9.991,1.696 -2.918,0.411 -5.664,1.622 -8.094,3.349 -2.555,1.817 -3.516,4.647 -3.897,7.523 -0.506,3.807 0.651,7.225 2.987,10.402 3.343,4.544 7.274,8.48 11.446,12.211 0.931,0.832 1.337,1.854 1.527,3.019 0.057,0.35 0.12,0.708 -0.278,0.955 -1.606,0.995 -2.366,2.867 -3.979,3.866 -0.445,0.276 -0.568,0.766 -0.16,1.113 0.525,0.446 0.819,1.079 1.332,1.506 3.298,2.738 6.26,5.826 9.011,9.088 3.26,3.865 5.954,8.127 6.916,13.193 0.616,3.242 0.872,6.53 0.696,9.871 -0.246,4.668 -0.036,9.302 1.345,13.871 1.477,4.884 4.48,8.571 8.247,11.773 1.487,1.264 2.996,2.488 4.751,3.413 3.477,1.832 6.964,2.042 10.577,0.478 4.655,-2.014 7.168,-5.583 8.165,-10.519 0.67,-3.317 -0.168,-6.289 -1.146,-9.344 -1.133,-3.537 -2.808,-6.747 -5.073,-9.688 -2.503,-3.252 -5.602,-5.662 -9.469,-7.024 -5.367,-1.89 -9.706,-5.226 -13.492,-9.388 -1.559,-1.713 -3.032,-3.488 -4.476,-5.299 -0.936,-1.174 -1.311,-2.444 -1.337,-3.859 -0.101,-5.489 -1.012,-10.886 -1.941,-16.268 -1.075,-6.227 -4.057,-11.543 -8.273,-16.197 -0.05,-0.055 -0.07,-0.137 -0.111,-0.221"
             style="fill:#010e50;fill-opacity:1;fill-rule:nonzero;stroke:none"
             id="path20" />
        </g>
        <g
           id="g22"
           transform="translate(273.9856,367.9467)">
          <path
             d="m 0,0 c -8.521,0.078 -16.374,1.852 -23.678,5.85 -1.189,0.651 -2.383,1.308 -3.628,1.838 -2.63,1.119 -4.646,3.063 -6.801,4.838 -1.478,1.218 -2.2,2.907 -3.076,4.512 -0.176,0.323 -0.122,0.62 0.146,0.868 0.294,0.273 0.647,0.344 0.995,0.154 0.7,-0.383 1.399,-0.772 2.067,-1.207 5.683,-3.704 11.956,-5.546 18.677,-6.116 5.906,-0.501 11.573,0.63 17.246,2.061 12.947,3.267 24.288,9.528 34.45,18.099 6.195,5.226 11.534,11.282 16.899,17.305 6.183,6.942 11.261,14.697 16.076,22.626 0.897,1.477 2.156,2.669 3.103,4.104 0.326,0.492 0.82,0.597 1.377,0.445 0.544,-0.15 0.56,-0.596 0.612,-1.044 0.196,-1.679 -0.423,-3.227 -0.814,-4.798 C 71.962,62.745 69.836,56.091 66.784,49.785 61.635,39.146 55.714,29.016 47.299,20.532 43.402,16.602 38.96,13.492 34.156,10.811 27.271,6.969 20.163,3.688 12.552,1.543 9.725,0.747 6.839,0.427 3.938,0.224 2.55,0.127 1.161,-0.129 0,0"
             style="fill:#5aaf23;fill-opacity:1;fill-rule:nonzero;stroke:none"
             id="path24" />
        </g>
        <g
           id="g26"
           transform="translate(328.7704,475.7028)">
          <path
             d="m 0,0 c -0.014,-7.617 -4.961,-14.407 -11.893,-16.324 -8.798,-2.433 -17.829,3.534 -19.297,12.749 -1.174,7.371 1.909,14.382 7.909,17.926 9.086,5.368 20.28,0.258 22.785,-10.201 C -0.171,2.791 0.053,1.409 0,0"
             style="fill:#010e50;fill-opacity:1;fill-rule:nonzero;stroke:none"
             id="path28" />
        </g>
        <g
           id="g30"
           transform="translate(353.5012,374.1476)">
          <path
             d="m 0,0 c -0.327,-4.345 -1.78,-8.322 -4.229,-11.901 -4.554,-6.654 -10.9,-10.493 -18.851,-11.688 -0.633,-0.096 -1.503,-0.51 -1.875,0.136 -0.449,0.78 0.577,1.08 0.982,1.539 1.899,2.154 4.252,3.874 5.965,6.212 5.02,6.849 6.352,14.49 4.866,22.732 -0.431,2.393 -0.814,4.786 -1.882,7.027 -1.113,2.337 -2.753,4.185 -4.757,5.758 -0.093,0.074 -0.217,0.114 -0.299,0.197 -0.486,0.493 -1.33,0.935 -0.948,1.73 0.359,0.748 1.223,0.414 1.853,0.284 1.323,-0.275 2.648,-0.577 3.934,-0.988 C -6.528,18.251 -1.749,12.146 -0.33,3.23 -0.161,2.166 0.074,1.108 0,0"
             style="fill:#5aaf23;fill-opacity:1;fill-rule:nonzero;stroke:none"
             id="path32" />
        </g>
        <g
           id="g34"
           transform="translate(304.0419,524.265)">
          <path
             d="M 0,0 C 0.148,-0.005 1.503,1.928 1.525,2.177 1.546,2.42 0.005,3.641 -0.363,3.672 -0.478,3.682 -2.083,1.656 -2.083,1.5 -2.084,1.365 -0.198,0.007 0,0 M 2.423,7.9 C 2.12,7.979 2.01,7.899 1.916,7.747 1.516,7.103 1.116,6.459 0.7,5.826 0.525,5.56 0.651,5.411 0.829,5.219 2.12,3.835 2.523,3.849 3.629,5.339 3.843,5.628 4.069,5.908 4.275,6.202 4.384,6.358 4.574,6.58 4.358,6.723 3.695,7.162 3.001,7.553 2.423,7.9 m -4.752,3.002 C -2.449,10.724 -2.573,10.536 -2.699,10.349 -2.967,9.952 -3.213,9.538 -3.507,9.163 -4.147,8.349 -4.185,7.846 -3.052,7.361 -0.874,6.429 -0.905,6.355 0.347,8.33 c 0.118,0.186 0.417,0.414 0.159,0.606 -0.86,0.641 -1.761,1.228 -2.835,1.966 M -2.218,4.865 C -2.272,4.93 -2.35,5.071 -2.468,5.158 -3.204,5.701 -3.903,6.553 -4.706,6.669 -5.385,6.767 -5.701,5.573 -6.253,5.017 -6.449,4.82 -6.608,4.586 -6.787,4.372 c -0.2,-0.24 -0.148,-0.434 0.114,-0.573 0.879,-0.468 1.762,-0.928 2.643,-1.393 0.149,-0.079 0.341,-0.14 0.429,0.009 0.464,0.788 0.902,1.591 1.383,2.45 M -2.57,-6.648 c -0.103,1.267 0.708,2.113 1.164,3.073 1.038,2.184 0.945,2.447 -1.283,3.427 -0.553,0.244 -0.712,-0.073 -0.942,-0.391 -0.674,-0.93 -1.351,-1.859 -2.011,-2.799 -0.154,-0.221 -0.21,-0.563 -0.591,-0.315 -0.375,0.243 -0.075,0.51 0.029,0.709 0.528,1.012 1.069,2.02 1.653,3.001 0.349,0.584 0.348,1.018 -0.272,1.393 -0.853,0.514 -1.668,1.097 -2.547,1.562 -0.479,0.253 -0.689,-0.282 -0.868,-0.588 -0.551,-0.937 -0.786,-2.037 -1.499,-2.9 -0.146,-0.177 -0.194,-0.431 -0.557,-0.48 0.003,1.48 0.701,2.728 1.309,3.968 0.374,0.764 0.394,1.229 -0.409,1.604 -0.178,0.083 -0.339,0.215 -0.485,0.349 -0.225,0.206 -0.355,0.469 -0.109,0.728 0.202,0.213 0.494,0.134 0.637,-0.054 1.132,-1.479 1.526,-0.375 2.047,0.538 1.127,1.976 1.144,1.966 -0.703,3.251 -0.222,0.154 -0.507,0.254 -0.592,0.789 0.853,-0.116 1.5,-0.56 2.063,-1.006 0.63,-0.498 1.017,-0.352 1.431,0.19 0.315,0.412 0.597,0.858 0.955,1.229 0.64,0.661 1.051,1.28 0.176,2.078 -0.193,0.176 -0.493,0.549 -0.147,0.824 0.36,0.288 0.718,-0.006 0.921,-0.283 0.554,-0.757 0.944,-0.533 1.446,0.078 0.408,0.497 1.047,1.406 1.57,0.92 0.665,-0.618 -0.3,-1.234 -0.745,-1.705 -0.6,-0.633 -0.658,-1.053 0.239,-1.344 0.853,-0.276 1.532,-1.434 2.366,-1.061 0.69,0.308 1.039,1.36 1.561,2.065 0.689,0.931 1.382,1.861 2.11,2.76 0.296,0.366 0.719,0.81 1.206,0.394 C 7.022,14.954 6.555,14.573 6.303,14.233 5.26,12.819 4.228,11.397 3.162,10 2.71,9.407 2.658,8.967 3.413,8.607 3.771,8.436 4.102,8.205 4.434,7.982 4.86,7.695 5.227,7.625 5.508,8.17 5.931,8.987 6.853,9.283 7.405,9.972 7.596,10.21 7.894,10.285 8.154,10.083 8.432,9.867 8.348,9.587 8.177,9.336 8.02,9.106 7.841,8.891 7.687,8.659 6.88,7.44 6.623,6.281 8.279,5.397 7.607,4.992 7.149,5.214 6.773,5.437 6.102,5.836 5.7,5.703 5.356,5.018 4.998,4.307 4.269,3.642 4.249,2.942 4.23,2.234 5.373,2.062 5.833,1.469 6.152,1.057 6.982,0.734 6.636,0.198 6.362,-0.225 5.709,0.341 5.229,0.485 5.077,0.531 4.933,0.605 4.788,0.672 3.183,1.418 3.266,1.355 2.184,-0.061 1.492,-0.965 1.836,-1.427 2.522,-1.953 2.961,-2.289 3.836,-2.62 3.473,-3.154 3.133,-3.654 2.394,-3.055 1.916,-2.744 1.166,-2.256 0.675,-2.342 0.214,-3.158 -0.303,-4.076 -1.127,-4.794 -1.544,-5.8 -1.703,-6.184 -2.047,-6.504 -2.57,-6.648"
             style="fill:#010e50;fill-opacity:1;fill-rule:nonzero;stroke:none"
             id="path36" />
        </g>
        <g
           id="g38"
           transform="translate(381.6276,526.0077)">
          <path
             d="m 0,0 c -2.472,-4.481 -8.108,-6.11 -12.589,-3.638 -4.482,2.471 -6.111,8.108 -3.639,12.589 2.472,4.481 8.108,6.11 12.59,3.638 C 0.843,10.118 2.472,4.481 0,0"
             style="fill:#5aaf23;fill-opacity:1;fill-rule:nonzero;stroke:none"
             id="path40" />
        </g>
        <g
           id="g42"
           transform="translate(373.9176,517.3208)">
          <path
             d="M 0,0 C 0.174,9.407 4.344,14.51 11.03,17.438"
             style="fill:none;stroke:#ffffff;stroke-width:1;stroke-linecap:butt;stroke-linejoin:miter;stroke-miterlimit:4;stroke-dasharray:none;stroke-opacity:1"
             id="path44" />
        </g>
        <g
           id="g46"
           transform="translate(362.0825,524.5293)">
          <path
             d="M 0,0 C 8.567,5.009 10.644,11.252 8.865,18.632"
             style="fill:none;stroke:#ffffff;stroke-width:1;stroke-linecap:butt;stroke-linejoin:miter;stroke-miterlimit:4;stroke-dasharray:none;stroke-opacity:1"
             id="path48" />
        </g>
      </g>
    </g>
  </g>
</svg>
